<?xml version="1.0" encoding="utf-8"?>
<!-- Generator: Adobe Illustrator 21.0.0, SVG Export Plug-In . SVG Version: 6.00 Build 0)  -->
<svg version="1.1" id="圖層_1" xmlns="http://www.w3.org/2000/svg" xmlns:xlink="http://www.w3.org/1999/xlink" x="0px" y="0px"
	 viewBox="0 0 148 32" style="enable-background:new 0 0 148 32;" xml:space="preserve">
<style type="text/css">
	.st0{fill:none;}
	.st1{fill:#041C5A;}
	.st2{fill:#DB002D;}
</style>
<rect class="st0" width="148" height="32"/>
<path class="st1" d="M50.2,15.4v-2c0-1.1-1.2-2.5-2.6-2.5h-7.7V32h-9.4V13.9L12.4,32H0L28.9,3.1h19.8C58,3.1,61,6.3,61,10.4v3.1
	L52.3,26H42.1l3.5-7.9h2.3C48.7,18.1,50.2,17.5,50.2,15.4z"/>
<polygon class="st2" points="16.7,32 27,32 27,21.9 "/>
<polygon class="st1" points="72,1.5 50.7,32 62.4,32 77.4,10.9 77.4,23.3 73.9,23.3 68.3,32 86.6,32 86.6,1.5 "/>
<rect class="st0" width="148" height="32"/>
<path class="st1" d="M109.6,22.7V32h-6.3c-1.6,0-15-1.8-15-16.5C88.4,4.1,98.2,0,104.8,0H148l-19.7,3.7h8.6L117,7.3h11.2
	c0,0-1.9,1.4-12.6,1.8C104.9,9.6,99,9.6,99,16.7c0,5.6,5.7,6.1,6.3,6.1S109.6,22.7,109.6,22.7z"/>
<polygon class="st1" points="132.8,12.2 132.8,17.5 125.3,17.5 125.3,12.2 113.4,12.2 113.4,32 125.4,32 125.4,26.6 132.8,26.6 
	132.8,32 144.7,32 144.7,12.2 "/>
</svg>
