<?xml version="1.0" encoding="utf-8"?>
<!-- Generator: Adobe Illustrator 21.0.0, SVG Export Plug-In . SVG Version: 6.00 Build 0)  -->
<svg version="1.1" id="圖層_1" xmlns="http://www.w3.org/2000/svg" xmlns:xlink="http://www.w3.org/1999/xlink" x="0px" y="0px"
	 viewBox="0 0 80 80" style="enable-background:new 0 0 80 80;" xml:space="preserve">
<style type="text/css">
	.st0{fill:#9D9D9E;}
	.st1{fill-rule:evenodd;clip-rule:evenodd;fill:#FFFFFF;}
</style>
<g>
	<path class="st0" d="M6.2,0h67.7C77.3,0,80,2.8,80,6.2v67.7c0,3.4-2.8,6.2-6.1,6.2H6.2C2.8,80,0,77.3,0,73.9V6.2C0,2.8,2.8,0,6.2,0
		z"/>
	<path class="st1" d="M19.2,53.6h-6.1v6.2h6.1V53.6z M19.1,41.2H13v6.3h6.1V41.2z M37.6,53.6h-6.1v6.2h6.1V53.6z M37.4,41.2h-6.1
		v6.3h6.1V41.2z M55.7,41.2h-6.1v6.3h6.1V41.2z M55.9,53.6h-6.1v6.2h6.1V53.6z M3,67.8l0.1-3.4h3.4V27.3l19,10.6V27.5l18.5,10.6
		V27.3L62.5,38V12.2h11.9V65h2.6v2.8H3z"/>
</g>
</svg>
