<?xml version="1.0" encoding="utf-8"?>
<!-- Generator: Adobe Illustrator 21.0.0, SVG Export Plug-In . SVG Version: 6.00 Build 0)  -->
<svg version="1.1" id="圖層_1" xmlns="http://www.w3.org/2000/svg" xmlns:xlink="http://www.w3.org/1999/xlink" x="0px" y="0px"
	 viewBox="0 0 80 80" style="enable-background:new 0 0 80 80;" xml:space="preserve">
<style type="text/css">
	.st0{fill:#9D9D9E;}
	.st1{fill-rule:evenodd;clip-rule:evenodd;fill:#FFFFFF;}
</style>
<g>
	<path class="st0" d="M6.2,0h67.7C77.3,0,80,2.8,80,6.2v67.7c0,3.4-2.8,6.2-6.2,6.2H6.2C2.8,80,0,77.3,0,73.9V6.2C0,2.8,2.8,0,6.2,0
		z"/>
	<path class="st1" d="M54.6,23.2L41.2,43.8l4.8,7.4L54.6,23.2L54.6,23.2z M65.3,52.9h5.6L60.4,24.3v1.3L65.3,52.9z M60.4,52.9h2.8
		l-2.8-15.7V52.9z M47.4,52.9h7.2V29.5L47.4,52.9z M19.6,52.9V37.3l-2.8,15.7H19.6z M19.6,24.3L9.2,52.9h5.6l4.8-27.4V24.3z
		 M32.6,52.9l-7.1-23.4v23.4H32.6z M25.4,19.5L40,41.9l14.6-22.5v-7.3h5.8v6.6l12.4,34.2H77v5.7H60.4v9.2h-5.8v-9.2H25.4v9.2h-5.8
		v-9.2H3v-5.7h4.1l12.4-34.2v-6.6h5.8V19.5z M38.8,43.8L25.4,23.2l8.6,28L38.8,43.8z M44.7,52.9L40,45.7l-4.7,7.3H44.7z"/>
</g>
</svg>
