<?xml version="1.0" encoding="utf-8"?>
<!-- Generator: Adobe Illustrator 21.0.0, SVG Export Plug-In . SVG Version: 6.00 Build 0)  -->
<svg version="1.1" id="圖層_1" xmlns="http://www.w3.org/2000/svg" xmlns:xlink="http://www.w3.org/1999/xlink" x="0px" y="0px"
	 viewBox="0 0 80 80" style="enable-background:new 0 0 80 80;" xml:space="preserve">
<style type="text/css">
	.st0{fill:#9D9D9E;}
	.st1{fill:#FFFFFF;}
	.st2{fill-rule:evenodd;clip-rule:evenodd;fill:#FFFFFF;}
</style>
<g>
	<path class="st0" d="M6.2,0h67.7C77.3,0,80,2.8,80,6.2v67.7c0,3.4-2.8,6.2-6.1,6.2H6.2C2.8,80,0,77.3,0,73.9V6.2C0,2.8,2.8,0,6.2,0
		z"/>
	<path class="st1" d="M11.8,57.3c0-4.2,3.4-7.6,7.6-7.6c4.2,0,7.6,3.4,7.6,7.6s-3.4,7.6-7.6,7.6C15.2,64.9,11.8,61.5,11.8,57.3z"/>
	<path class="st1" d="M33.4,40.9h38v11.3c0,0,1.6,4.2-5.3,4.2c-1.6-11.7-11-11-11-11s-9.5-0.1-10.8,10.7L37,56.3
		c0,0-3.8,0.4-3.8-3.5S33.4,40.9,33.4,40.9z"/>
	<path class="st1" d="M33.4,37.3h40.4c0,0,3.3,0.4,3.3-2.7s-0.1-5.3-0.1-5.3s1.2-3.3-3.9-4.1c-5.2-0.8-34.1-4.5-34.1-4.5V17
		c0,0-0.5-2.9-3.7-2.9h-9c0,0-3.9-0.1-3.9,2.7s3.1,2.6,3.1,2.6s7.7,1,7.7,7.1S33.4,37.3,33.4,37.3z"/>
	<path class="st2" d="M13.4,28.3c-4.1,0-5.2,5.4-5.2,5.4v6c0,2,2.8,1.9,4.8,0c1.9-1.9,4.5-1.8,4.5-1.8h5.3c1.2,0,1.6-2.6,1.6-2.6
		v-4.2c0-3.1-2.6-2.6-2.6-2.6S17.5,28.3,13.4,28.3z M28.2,28.2v22c0,0-3.9-4.8-9-4.8s-10.9,4.3-10.9,11c0,0-5.4,0.3-5.4-3.5V35.6
		c0,0,0.1-9.2,10.6-11.3h11.4C24.9,24.4,28.2,24.2,28.2,28.2z"/>
</g>
</svg>
