<?xml version="1.0" encoding="utf-8"?>
<!-- Generator: Adobe Illustrator 21.0.0, SVG Export Plug-In . SVG Version: 6.00 Build 0)  -->
<svg version="1.1" id="圖層_1" xmlns="http://www.w3.org/2000/svg" xmlns:xlink="http://www.w3.org/1999/xlink" x="0px" y="0px"
	 viewBox="0 0 80 80" style="enable-background:new 0 0 80 80;" xml:space="preserve">
<style type="text/css">
	.st0{fill:#9D9D9E;}
	.st1{fill:#FFFFFF;}
</style>
<g>
	<path class="st0" d="M6.2,0h67.7C77.3,0,80,2.8,80,6.2v67.7c0,3.4-2.8,6.2-6.2,6.2H6.2C2.8,80,0,77.3,0,73.9V6.2C0,2.8,2.8,0,6.2,0
		z"/>
	<path class="st1" d="M39,62V30.8l-22.5,9.6c0,0-6.5,1.7-3.5,6c3.3,4.6,3.1,12.5,3.1,12.5S15.3,62,19,62s7.5-0.7,11.5-4.2
		C35.2,61.6,39,62,39,62z"/>
	<path class="st1" d="M41,62V30.8l22.5,9.6c0,0,6.5,1.7,3.5,6c-3.3,4.6-3.1,12.5-3.1,12.5s0.8,3.1-2.8,3.1c-3.7,0-7.5-0.7-11.5-4.2
		C44.8,61.6,41,62,41,62z"/>
	<polygon class="st1" points="19.4,24.4 60.9,24.4 61,29.2 58.7,29.3 58.8,35.7 40,28.2 20.3,36.1 20.7,29.4 19.1,29.3 	"/>
	<rect x="35.4" y="9.1" class="st1" width="9.6" height="7.7"/>
	<polygon class="st1" points="25.6,18.7 54.5,18.7 54.5,22.9 25.5,22.9 	"/>
</g>
</svg>
