<?xml version="1.0" encoding="utf-8"?>
<!-- Generator: Adobe Illustrator 21.0.0, SVG Export Plug-In . SVG Version: 6.00 Build 0)  -->
<svg version="1.1" id="圖層_1" xmlns="http://www.w3.org/2000/svg" xmlns:xlink="http://www.w3.org/1999/xlink" x="0px" y="0px"
	 viewBox="0 0 80 80" style="enable-background:new 0 0 80 80;" xml:space="preserve">
<style type="text/css">
	.st0{fill:#9D9D9E;}
	.st1{fill-rule:evenodd;clip-rule:evenodd;fill:#FFFFFF;}
</style>
<g>
	<path class="st0" d="M6.2,0h67.7C77.3,0,80,2.8,80,6.2v67.7c0,3.4-2.8,6.2-6.2,6.2H6.2C2.8,80,0,77.3,0,73.9V6.2C0,2.8,2.8,0,6.2,0
		z"/>
	<path class="st1" d="M7.9,49.2c0,3,2.4,5.4,5.4,5.4s5.4-2.4,5.4-5.4c0-3-2.4-5.4-5.4-5.4S7.9,46.2,7.9,49.2z M59.5,49.2
		c0,3,2.4,5.4,5.4,5.4c3,0,5.4-2.4,5.4-5.4c0-3-2.4-5.4-5.4-5.4C61.9,43.8,59.5,46.2,59.5,49.2z M2.2,49.2c0-6.1,4.9-11,11-11l0.8,0
		l1.1-3.4l-1.6-0.7l1.5-3.2L11.8,31l-0.1-7c0,0,3.4-0.8,5.9,2l1.3-3l2.7-0.1l2-5.1h8.5v3.2h-6.2l-1.2,3.1l1.9,2c0,0,13.4-5.1,21.1,4
		h22.6c0,0,2.6,0.7,2,4.4h3.6v4.7h-1.6c0,0,3.9,3.2,3.5,8.7h-2.3c0,0,1.1,9.5-9.1,10.9c-4.8,0.6-10.6-2.2-11.8-7.3H30.6l-7.5-15.1
		H20l-1,3.1c3.2,1.9,5.3,5.4,5.3,9.4c0,6.1-4.9,11-11,11C7.2,60.2,2.2,55.3,2.2,49.2z"/>
</g>
</svg>
