<?xml version="1.0" encoding="utf-8"?>
<!-- Generator: Adobe Illustrator 21.0.0, SVG Export Plug-In . SVG Version: 6.00 Build 0)  -->
<svg version="1.1" id="圖層_1" xmlns="http://www.w3.org/2000/svg" xmlns:xlink="http://www.w3.org/1999/xlink" x="0px" y="0px"
	 viewBox="0 0 80 80" style="enable-background:new 0 0 80 80;" xml:space="preserve">
<style type="text/css">
	.st0{fill:#9D9D9E;}
	.st1{fill-rule:evenodd;clip-rule:evenodd;fill:#FFFFFF;}
	.st2{fill:#FFFFFF;}
</style>
<g>
	<path class="st0" d="M6.2,0h67.7C77.3,0,80,2.8,80,6.2v67.7c0,3.4-2.8,6.2-6.2,6.2H6.2C2.8,80,0,77.3,0,73.9V6.2C0,2.8,2.8,0,6.2,0
		z"/>
	<path class="st1" d="M26.3,34h11.8c0,0,3.1-0.1,3.1-2.2v-6.7c0,0-0.4-2.4-3.9-1.8c-3.5,0.7-8.3,2.8-11.8,7.9
		C23.5,34.2,26.3,34,26.3,34z M44.9,31.5c0,2.2,3.4,2,3.4,2h9.6c0,0,2.9-1-0.5-4.3c-3.5-3.4-6.3-5.8-8.8-6c-3.5-0.3-3.7,2.7-3.7,2.7
		V31.5z M10.6,51.5l-3.8,0.1c0,0-4.3-0.7-4.3-7.9c0-7.2,9.6-9.1,13-9.1s6.7-6.1,6.7-6.1s4.8-9.4,21.2-9.4c12.3,0,17.2,5.3,19.5,10
		c2.3,4.8,8.3,6.6,8.3,6.6s5.4-0.7,5.4,7.5s-7,8.2-7,8.2s-0.8-11.4-11.4-11.4S47.2,51.3,47.2,51.3H32.8c0,0-0.7-11.1-11.1-11.1
		S10.6,51.5,10.6,51.5z"/>
	<path class="st2" d="M13.6,50.5c0-4.5,3.6-8.2,8.1-8.2c4.5,0,8.2,3.7,8.2,8.2c0,4.5-3.7,8.1-8.2,8.1C17.2,58.7,13.6,55,13.6,50.5z"
		/>
</g>
</svg>
