<?xml version="1.0" encoding="utf-8"?>
<!-- Generator: Adobe Illustrator 21.0.0, SVG Export Plug-In . SVG Version: 6.00 Build 0)  -->
<svg version="1.1" id="圖層_1" xmlns="http://www.w3.org/2000/svg" xmlns:xlink="http://www.w3.org/1999/xlink" x="0px" y="0px"
	 viewBox="0 0 80 80" style="enable-background:new 0 0 80 80;" xml:space="preserve">
<style type="text/css">
	.st0{fill:#9D9D9E;}
	.st1{fill-rule:evenodd;clip-rule:evenodd;fill:#FFFFFF;}
</style>
<g>
	<path class="st0" d="M6.2,0h67.7C77.3,0,80,2.8,80,6.2v67.7c0,3.4-2.8,6.2-6.2,6.2H6.2C2.8,80,0,77.3,0,73.9V6.2C0,2.8,2.8,0,6.2,0
		z"/>
	<path class="st1" d="M53.7,50.8c0,3.7,3,6.8,6.8,6.8s6.8-3,6.8-6.8c0-3.7-3-6.8-6.8-6.8S53.7,47.1,53.7,50.8z M49.1,59.9l-2.1-3.7
		l0.9-0.5c-0.3-0.9-0.6-1.9-0.7-2.8H46v-4.3h1.2c0.2-0.9,0.4-1.8,0.7-2.6l-1-0.6l2.1-3.7l1.1,0.6c0.6-0.7,1.2-1.3,1.9-1.9l-0.6-1.1
		l3.7-2.1l0.7,1.2c0.8-0.3,1.5-0.5,2.3-0.6v-1.5h4.3v1.5c0.9,0.2,1.7,0.4,2.5,0.7l0.6-1l3.7,2.1l-0.6,1c0.7,0.5,1.3,1.2,1.8,1.8
		l1.2-0.7l2.1,3.7l-1.2,0.7c0.3,0.7,0.5,1.5,0.6,2.2h1.4v4.3h-1.3c-0.1,0.9-0.3,1.7-0.6,2.5l1.2,0.7l-2.1,3.7l-1.1-0.6
		c-0.5,0.7-1.1,1.3-1.8,1.9l0.6,1l-3.7,2.1l-0.6-1c-0.9,0.4-1.8,0.6-2.7,0.8v1h-4.3v-1c-0.9-0.1-1.7-0.3-2.5-0.6L55,64.5l-3.7-2.1
		l0.7-1.1c-0.7-0.6-1.3-1.2-1.9-1.9L49.1,59.9z"/>
	<path class="st1" d="M44.2,29.1l2.7,2.5c0,0,1.1,0.4,2,0c0.9-0.4,7.2-3.8,15.9-2.5l-2.6-11H45.5L44.2,29.1z M27.5,55.6
		c0,0,1-8.6-5.7-12.9c-1-0.7-6.2-4.2-14.2-1.8c-0.9,0.3-2.5,0.1-2.5-1c-0.1-1.1,0-4.1,0-4.1s0.4-1.9,3.6-2.6l20.2-4.4l0.1-6.8
		l0.9-0.1c0,0,1.2-1.5-4.3-1.2v-3.1c0,0,3.6-1.2,6,0.3c1.1,0.7,2,1.6,2.1,3.8h1l-0.1,6l5.7-1.3l0.3-8.3c0,0-2.6-0.1-3.5-0.1
		c-1.6,0-2.2-4,0.5-4.1c3.5-0.1,32.5,0,34.6,0s2.3,4.2,0,4.2h-5.2l2.9,12.6c0,0,7.4,3.4,8,6.4c0.5,2.5-2.2,2-3.5,0.7
		c-1.3-1.3-7.8-6.9-17.4-5.4c-3,0.5-12.9,3.3-15.2,14.8c-0.4,2.1,0.3,7.4,0.7,8.2c0.3,0.2,0.4,0.6,0.1,0.2H27.5z"/>
</g>
</svg>
